<?xml version="1.0" encoding="UTF-8" standalone="no"?>
<svg
   version="1.1"
   width="33.75mm"
   height="33.75mm"
   id="svg12"
   viewBox="0 0 95.669291 95.669291"
   xmlns="http://www.w3.org/2000/svg"
   xmlns:svg="http://www.w3.org/2000/svg">
  <defs
     id="defs12" />
  <path
     d="m 25.665907,95.884581 c -5.552558,0 -10.072077,-0.705815 -13.558609,-2.13329 C 8.6023562,92.323766 5.8352575,90.04611 3.7876422,86.918392 2.3118878,84.688915 1.2787989,81.833847 0.67011681,78.353306 0.07977789,74.888729 -0.2154,69.018212 -0.2154,60.741756 V 21.781632 h 19.701589 v 45.359926 c 0,6.84893 0.497999,11.099428 1.494114,12.735461 0.97779,1.620019 2.730261,2.438002 5.257464,2.438002 2.161168,0 3.745783,-0.603974 4.775868,-1.802134 V 0.2151 H 56.70503 v 76.153872 h 30.800578 c 0,6.505186 0,13.010423 0,19.515609 z M 71.498012,7.9481635 H 87.74498 c 4.239968,0 7.709084,3.4690655 7.709084,7.7090845 V 27.77159 c 0,4.240018 -3.469116,7.709084 -7.709084,7.709084 H 63.788911 V 15.657248 c 0,-4.240019 3.469083,-7.7090845 7.709101,-7.7090845 z"
     style="fill:#3c82f6;fill-rule:evenodd;stroke-width:0.16875"
     id="path4" />
  <g
     id="Layer1000" />
</svg>
